<?xml version="1.0" encoding="utf-8"?>
<svg viewBox="0.0004 74.496 511.9996 363.008" width="511.9996" height="363.008" xmlns="http://www.w3.org/2000/svg">
  <defs>
    <style type="text/css">
	.st0{fill:#000000;}
</style>
  </defs>
  <g transform="matrix(1, 0, 0, 1, 7.105427357601002e-15, 0)">
    <path class="st0" d="M464.44,297.311V162.119h-65.106V74.496h-80.098l-16.44,87.624h-81.204l-14.243,96.187L25.09,225.169 c-8.056-1.473-16.253,1.823-21.052,8.477c-4.816,6.646-5.361,15.459-1.434,22.658l80.674,147.915 c11.188,20.515,32.693,33.285,56.068,33.285H468.29c16.315,0,30.013-12.31,31.742-28.532L512,297.311H464.44z M319.86,245.981 h-37.555v-37.548h37.555V245.981z M413.733,245.981h-37.556v-37.548h37.556V245.981z"/>
  </g>
</svg>