<?xml version="1.0" encoding="utf-8"?>
<svg viewBox="0 0 512 512" xmlns="http://www.w3.org/2000/svg">
  <defs>
    <style type="text/css">
	.st0{fill:#000000;}
</style>
  </defs>
  <g transform="matrix(1, 0, 0, 1, 7.105427357601002e-15, 0)">
    <path class="st0" d="M464.44,297.311V162.119h-65.106V74.496h-80.098l-16.44,87.624h-81.204l-14.243,96.187L25.09,225.169 c-8.056-1.473-16.253,1.823-21.052,8.477c-4.816,6.646-5.361,15.459-1.434,22.658l80.674,147.915 c11.188,20.515,32.693,33.285,56.068,33.285H468.29c16.315,0,30.013-12.31,31.742-28.532L512,297.311H464.44z M319.86,245.981 h-37.555v-37.548h37.555V245.981z M413.733,245.981h-37.556v-37.548h37.556V245.981z" style="fill: rgb(255, 255, 255);"/>
  </g>
  <path d="M 496.847 304.652 C 496.847 304.652 411.739 258.838 402.029 228.963 C 394.065 204.44 418.088 171.811 463.388 132.495 C 416.073 156.867 360.077 177.601 360.715 151.108 C 361.402 122.825 362.634 123.969 377.397 71.795 L 387.075 30.583 C 369.575 56.609 342.881 85.463 337.346 80.591 C 332.531 76.337 322.343 47.558 324.437 26.222 L 309.805 46.023 C 277.861 85.539 258.123 110.272 225.254 114.648 C 197.167 118.392 160.811 87.372 119.848 43.346 C 143.168 86.86 151.742 121.758 136.019 130.373 C 117.432 140.567 69.208 127.774 14.058 106.001 C 14.058 106.001 97.918 161.467 91.392 169.693 C 85.667 176.911 45.615 178.833 11.114 174.446 L 49.901 198.951 C 91.808 231.369 101.997 244.976 101.997 267.74 C 101.997 287.316 60.811 327.296 25.445 358.961 L 12.377 369.803 C 44.288 359.969 96.095 360.51 109.242 382.553 C 122.662 405.031 120.822 440.816 103.581 487.186 L 125.126 462.212 C 156.444 422.443 187.058 411.557 202.942 412.97 C 214.186 413.961 208.092 447.611 200.413 484.404 L 241.808 418.231 C 258.571 389.168 283.397 352.255 323.398 367.351 C 364.938 383.033 410.556 411.104 457.245 441.267 C 432.836 413.195 387.875 373.215 397.567 365.772 C 407.757 357.939 457.324 373.064 502.75 388.583 L 472.391 366.614 C 442.594 347.503 434.052 329.356 437.379 320.589 C 441.57 309.525 454.062 303.435 496.847 304.652 Z M 355.421 292.338 C 350.064 297.36 383.555 316.05 402.7 328.996 C 373.75 319.494 337.25 305.21 330.437 310.441 C 325.511 314.23 348.352 334.544 360.779 348.827 C 337.027 333.476 315.274 312.019 292.529 311.299 C 259.067 310.23 249.183 333.747 232.66 391.484 C 237.01 364.074 240.802 335.402 231.412 334.589 C 218.087 333.416 176.197 361.426 152.125 394.715 C 168.936 346.828 193.903 336.183 183.684 319.056 C 174.454 303.585 139.793 312.998 124.79 321.206 C 142.464 305.526 179.923 273.981 179.923 260.689 C 179.923 241.352 142.816 219.596 74.375 201.283 C 115.513 207.372 168.552 218.558 174.742 210.77 C 179.589 204.681 139.681 183.511 115.401 168.505 C 158.139 185.735 185.219 197.372 197.327 190.743 C 205.325 186.353 200.877 168.64 189.009 146.507 C 209.851 168.897 228.532 184.667 242.817 182.759 C 272.951 178.745 285.971 141.26 309.451 69.722 C 303.934 109.534 292.753 159.408 299.63 165.482 C 304.781 170.038 325.797 133.246 342.018 109.836 C 323.718 153.23 306.108 185.856 314.986 200.726 C 322.008 212.484 339.81 204.184 363.865 191.794 C 340.832 211.792 328.454 228.376 332.501 240.858 C 340.545 265.621 359.228 270.957 426.535 293.12 C 391.969 288.909 363.37 284.821 355.388 292.309 L 355.421 292.338 Z" style="fill: rgb(252, 68, 1);" transform="matrix(1, 0, 0, 1, 7.105427357601002e-15, 0)"/>
  <path d="M 466.665 297.045 C 466.665 297.045 386.978 254.989 379.269 231.324 C 372.951 211.869 379.766 195.148 415.705 163.978 C 378.181 183.27 351.853 188.487 340.913 170.159 C 331.093 153.725 345.441 117.338 362.842 76.922 C 362.842 76.922 321.432 118.752 317.049 114.887 C 313.227 111.505 307.276 84.711 308.923 67.812 C 308.923 67.812 254.236 138.418 228.196 141.892 C 205.916 144.853 177.109 120.271 144.624 85.358 C 163.099 119.85 169.91 147.529 157.467 154.341 C 142.72 162.445 108.969 148.161 65.258 130.885 L 93.92 151.454 C 124.021 169.408 113.322 177.435 108.155 183.931 C 103.629 189.659 71.943 187.87 44.591 184.382 L 72.839 201.598 C 112.426 220.379 130.485 245.186 130.485 263.261 C 130.485 278.762 63.978 348.002 63.978 348.002 C 89.28 340.196 125.796 336.783 136.226 354.241 C 146.878 372.072 144.368 396.084 130.708 432.861 C 130.708 423.464 197.936 369.787 210.506 378.387 C 217.736 383.334 227.909 400.113 221.816 429.299 C 230.837 415.615 265.577 340.903 305.981 342.212 C 341.441 343.34 356.092 364.6 393.105 388.491 C 373.767 366.254 357.1 346.858 364.762 340.934 C 372.872 334.739 407.051 344.917 443.057 357.217 C 443.057 357.217 406.428 327.146 410.843 312.275 C 415.529 296.488 447.119 295.766 466.665 297.045 Z M 331.396 282.73 C 327.127 286.731 353.677 301.541 368.84 311.78 C 345.888 304.263 316.952 292.955 311.563 297.104 C 307.675 300.083 325.766 316.2 335.62 327.537 C 316.777 315.358 299.534 298.352 281.509 297.782 C 254.987 296.908 252.014 305.871 238.912 351.639 C 242.384 329.913 240.53 316.877 233.075 316.215 C 222.518 315.298 199.103 326.905 180.021 353.323 C 193.345 315.343 203.341 317.494 195.248 303.902 C 187.922 291.646 160.443 299.121 148.559 305.631 C 162.554 293.196 192.256 268.191 192.256 257.652 C 192.256 242.316 186.035 226.648 131.78 212.123 C 164.393 216.979 183.235 224.242 188.146 218.077 C 192.002 213.236 177.205 198.05 157.98 186.157 C 191.841 199.792 196.431 207.478 206.044 202.216 C 212.378 198.727 208.876 184.698 199.47 167.135 C 215.977 184.877 230.789 197.389 242.113 195.885 C 266.01 192.696 270.84 198.26 289.457 141.547 C 285.09 173.107 281.685 177.377 287.155 182.187 C 291.218 185.781 301.55 177.255 314.425 158.685 C 299.918 193.072 292.289 198.335 299.326 210.123 C 304.892 219.432 319.001 212.86 338.049 203.042 C 319.816 218.89 309.994 232.046 313.211 241.924 C 319.577 261.56 332.964 264.087 386.354 281.649 C 358.941 278.31 337.683 276.791 331.364 282.716 L 331.396 282.73 Z" style="fill: rgb(251, 177, 1); transform-origin: 255.149px 246.63px;"/>
</svg>